{"title":"Fahrenheit 451 (1966) mpeg4[anti-c]{1337x}-kawli","uid":7483061,"size":734872034,"categoryP":"video","categoryS":"movies","magnet":"?xt=urn:btih:f5235e76e6f16bfc45300614e3a351be9fff8fe5&amp;dn=Fahrenheit+451+%281966%29+mpeg4%5Banti-c%5D%7B1337x%7D-kawli&amp;tr=udp%3A%2F%2Ftracker.openbittorrent.com%3A80&amp;tr=udp%3A%2F%2Fopen.demonii.com%3A1337&amp;tr=udp%3A%2F%2Ftracker.coppersurfer.tk%3A6969&amp;tr=udp%3A%2F%2Fexodus.desync.com%3A6969","seeders":0,"leechers":1,"uploader":"hiest","files":-1,"time":1343491198,"description":"Shared By:\n##    ##    ###    ##      ## ##       ####  ######      ###    ######## ######## \n##   ##    ## ##   ##  ##  ## ##        ##  ##    ##    ## ##   ##       ##       \n##  ##    ##   ##  ##  ##  ## ##        ##  ##         ##   ##  ##       ##       \n#####    ##     ## ##  ##  ## ##        ##  ##   #### ##     ## #######  #######  \n##  ##   ######### ##  ##  ## ##        ##  ##    ##  #########       ##       ## \n##   ##  ##     ## ##  ##  ## ##        ##  ##    ##  ##     ## ##    ## ##    ## \n##    ## ##     ##  ###  ###  ######## ####  ######   ##     ##  ######   ######  \n\n\nPoster: &lt;a href=&quot;\nhttp://leetleech.org/images/97794729627070020665.jpg&quot; rel=&quot;nofollow&quot; target=&quot;_NEW&quot;&gt;\nhttp://leetleech.org/images/97794729627070020665.jpg&lt;/a&gt;\n\n\nIMDB: &lt;a href=&quot;\nhttp://www.imdb.com/title/tt0060390&quot; rel=&quot;nofollow&quot; target=&quot;_NEW&quot;&gt;\nhttp://www.imdb.com/title/tt0060390&lt;/a&gt;\n\n\nNfo:\n\nMedia Info:\nGeneral\nFile name : Fahrenheit 451(1966)\nFormat : AVI\nFormat/Info : Audio Video Interleave\nFile size : 701 MiB\nDuration : 1h 52mn\nOverall bit rate mode : Variable\nverall bit rate : 871 Kbps\nWriting application : Nandub v1.0rc2\nWriting library : Nandub build 1852/release\n\n\nVideo\nID : 0\nFormat : MPEG-4 Visual\nCodec ID : DIV3\nCodec ID/Hint : DivX 3 Low\nDuration : 1h 52mn\nBit rate : 809 Kbps\nWidth : 512 pixels\nHeight : 272 pixels\nDisplay aspect ratio : 1.882\nFrame rate : 23.976 fps\nColor space : YUV\nChroma subsampling : 4:2:0\nBit depth : 8 bits\nCompression mode : Lossy\nBits/(Pixel*Frame) : 0.242\nStream size : 651 MiB (93%)\n\n\nAudio\nID : 1\nFormat : MPEG Audio\nFormat version : Version 1\nFormat profile : Layer 3\nCodec ID : 55\nCodec ID/Hint : MP3\nDuration : 1h 52mn\nBit rate mode : Variable\nBit rate : 50.2 Kbps\nChannel(s) : 1 channel\nSampling rate : 44.1 KHz\nCompression mode : Lossy\nStream size : 40.4 MiB (6%)\nAlignment : Aligned on interleaves\nInterleave, duration : 26 ms (0.63 video frame)\nInterleave, preload duration : 534 ms\nWriting library : LAME3.89 (beta)\n\n\nScreens:\n &lt;a href=&quot;\nhttp://leetleech.org/images/93655882127532875481.png&quot; rel=&quot;nofollow&quot; target=&quot;_NEW&quot;&gt;\nhttp://leetleech.org/images/93655882127532875481.png&lt;/a&gt;\n &lt;a href=&quot;\nhttp://leetleech.org/images/76380070874719360420.png&quot; rel=&quot;nofollow&quot; target=&quot;_NEW&quot;&gt;\nhttp://leetleech.org/images/76380070874719360420.png&lt;/a&gt;\n &lt;a href=&quot;\nhttp://leetleech.org/images/38165070215112748198.png&quot; rel=&quot;nofollow&quot; target=&quot;_NEW&quot;&gt;\nhttp://leetleech.org/images/38165070215112748198.png&lt;/a&gt;\n &lt;a href=&quot;\nhttp://leetleech.org/images/07963052205956373765.png&quot; rel=&quot;nofollow&quot; target=&quot;_NEW&quot;&gt;\nhttp://leetleech.org/images/07963052205956373765.png&lt;/a&gt;\n &lt;a href=&quot;\nhttp://leetleech.org/images/66505715688481754529.png&quot; rel=&quot;nofollow&quot; target=&quot;_NEW&quot;&gt;\nhttp://leetleech.org/images/66505715688481754529.png&lt;/a&gt;\n\nCredits to Anti-C and Kawliga55 @ 1337x\n\n\nShared By:\n##    ##    ###    ##      ## ##       ####  ######      ###    ######## ######## \n##   ##    ## ##   ##  ##  ## ##        ##  ##    ##    ## ##   ##       ##       \n##  ##    ##   ##  ##  ##  ## ##        ##  ##         ##   ##  ##       ##       \n#####    ##     ## ##  ##  ## ##        ##  ##   #### ##     ## #######  #######  \n##  ##   ######### ##  ##  ## ##        ##  ##    ##  #########       ##       ## \n##   ##  ##     ## ##  ##  ## ##        ##  ##    ##  ##     ## ##    ## ##    ## \n##    ## ##     ##  ###  ###  ######## ####  ######   ##     ##  ######   ######  ","torrent":{"xt":"urn:btih:f5235e76e6f16bfc45300614e3a351be9fff8fe5","amp;dn":"Fahrenheit+451+%281966%29+mpeg4%5Banti-c%5D%7B1337x%7D-kawli","amp;tr":["udp%3A%2F%2Ftracker.openbittorrent.com%3A80","udp%3A%2F%2Fopen.demonii.com%3A1337","udp%3A%2F%2Ftracker.coppersurfer.tk%3A6969","udp%3A%2F%2Fexodus.desync.com%3A6969"],"infoHash":"f5235e76e6f16bfc45300614e3a351be9fff8fe5","infoHashBuffer":{"type":"Buffer","data":[245,35,94,118,230,241,107,252,69,48,6,20,227,163,81,190,159,255,143,229]},"announce":[],"urlList":[]}}